PathFileType	4	(X/Y/Z)	E1.trc
DataRate	CameraRate	NumFrames	NumMarkers	Units	OrigDataRate	OrigDataStartFrame	OrigNumFrames
60.0	60.0	15	23	m	60.0	274	2190
Frame#	Time	NOSE	LEFT_EAR	RIGHT_EAR	LEFT_SHOULDER	RIGHT_SHOULDER	LEFT_ELBOW	RIGHT_ELBOW	LEFT_WRIST	RIGHT_WRIST	LEFT_INDEX	RIGHT_INDEX	LEFT_THUMB	RIGHT_THUMB	LEFT_HIP	RIGHT_HIP	LEFT_KNEE	RIGHT_KNEE	LEFT_ANKLE	RIGHT_ANKLE	LEFT_HEEL	RIGHT_HEEL	LEFT_FOOT_INDEX	RIGHT_FOOT_INDEX
		X1	Y1	Z1	X2	Y2	Z2	X3	Y3	Z3	X4	Y4	Z4	X5	Y5	Z5	X6	Y6	Z6	X7	Y7	Z7	X8	Y8	Z8	X9	Y9	Z9	X10	Y10	Z10	X11	Y11	Z11	X12	Y12	Z12	X13	Y13	Z13	X14	Y14	Z14	X15	Y15	Z15	X16	Y16	Z16	X17	Y17	Z17	X18	Y18	Z18	X19	Y19	Z19	X20	Y20	Z20	X21	Y21	Z21	X22	Y22	Z22	X23	Y23	Z23
274	4.550000	0.266038	1.105217	0.806830	0.309134	1.132670	0.722590	0.208091	1.133441	0.739512	0.414642	0.981257	0.636924	0.090151	0.986399	0.651045	0.500213	0.798484	0.866254	0.071682	0.778378	0.844090	0.399627	0.854448	1.063315	0.224575	0.812370	1.060109	0.368266	0.883564	1.106983	0.238533	0.861531	1.113241	0.367573	0.880918	1.084862	0.236791	0.854214	1.090437	0.346789	0.622927	0.231753	0.136774	0.623837	0.241618	0.534165	0.474024	0.573322	-0.052387	0.468864	0.568414	0.526651	0.090973	0.423216	-0.041768	0.072297	0.404193	0.507822	0.031124	0.382273	-0.018405	0.017012	0.394132	0.591695	0.020579	0.515210	-0.131392	-0.007246	0.503088
275	4.566667	0.266540	1.121628	0.805718	0.309811	1.150210	0.720381	0.207118	1.150391	0.739235	0.415961	0.994877	0.634104	0.086583	1.000369	0.648936	0.497517	0.798515	0.856453	0.064030	0.778961	0.826096	0.390771	0.850288	1.036331	0.219138	0.819357	1.036914	0.364447	0.897943	1.091494	0.241712	0.870255	1.086288	0.364672	0.891683	1.065845	0.236539	0.862779	1.061565	0.348418	0.636497	0.238584	0.134573	0.636959	0.246428	0.531551	0.477492	0.570156	-0.049738	0.472919	0.563465	0.525759	0.090883	0.422078	-0.041762	0.071587	0.403013	0.506972	0.030439	0.380452	-0.017443	0.015159	0.389763	0.589687	0.017462	0.515035	-0.131435	-0.006913	0.504387
276	4.583333	0.266222	1.138346	0.803921	0.310326	1.168238	0.717841	0.205962	1.167571	0.737006	0.417575	1.012711	0.630454	0.082914	1.013245	0.643241	0.505686	0.798855	0.838413	0.059697	0.782421	0.802929	0.380138	0.856401	1.024268	0.223626	0.829272	1.012815	0.354757	0.908879	1.078081	0.256092	0.863306	1.063884	0.353406	0.902879	1.046366	0.251995	0.855933	1.039669	0.349643	0.651397	0.243650	0.132736	0.649518	0.249445	0.528998	0.479471	0.568999	-0.048985	0.473329	0.556715	0.524992	0.090460	0.422702	-0.041863	0.071310	0.400924	0.505802	0.030425	0.379204	-0.017735	0.014677	0.387909	0.587193	0.011881	0.520459	-0.129702	-0.008475	0.503103
277	4.600000	0.266427	1.156908	0.801518	0.311206	1.187043	0.714223	0.205204	1.186472	0.733751	0.418947	1.031700	0.625462	0.082216	1.030067	0.638975	0.509614	0.802036	0.821593	0.053993	0.787045	0.781394	0.371303	0.869615	1.009592	0.217865	0.839595	0.979894	0.341443	0.923696	1.056399	0.251832	0.877418	1.026738	0.342593	0.920008	1.027803	0.247637	0.869595	1.003860	0.351453	0.664408	0.247543	0.131123	0.661528	0.251936	0.527862	0.481979	0.567606	-0.046857	0.476619	0.553641	0.524139	0.091555	0.423247	-0.039865	0.069532	0.400582	0.504484	0.029907	0.378423	-0.016773	0.017431	0.381824	0.583138	0.009608	0.524326	-0.130678	-0.007686	0.503251
278	4.616667	0.268275	1.176009	0.797963	0.312374	1.208137	0.710640	0.205003	1.205360	0.731716	0.420473	1.050369	0.618532	0.080141	1.044911	0.636157	0.519421	0.806609	0.792826	0.058741	0.789747	0.765554	0.375231	0.878778	0.983277	0.218750	0.850360	0.961139	0.340505	0.939643	1.030310	0.256499	0.889995	1.008622	0.340008	0.932830	1.000573	0.252131	0.883937	0.984297	0.351964	0.679963	0.249746	0.129699	0.673907	0.258655	0.526590	0.480187	0.564368	-0.043379	0.480067	0.551739	0.523511	0.090313	0.421817	-0.039612	0.068802	0.401398	0.503098	0.029181	0.377249	-0.016070	0.016666	0.380489	0.583316	0.007118	0.524461	-0.130573	-0.007082	0.504979
279	4.633333	0.270160	1.194373	0.795594	0.312863	1.227231	0.707780	0.204909	1.223730	0.730167	0.421384	1.065564	0.610238	0.078834	1.062734	0.632252	0.513607	0.810787	0.771769	0.058121	0.800727	0.756873	0.367800	0.889618	0.955968	0.234715	0.854837	0.933648	0.333639	0.950697	1.001702	0.281543	0.893883	0.978414	0.334729	0.942226	0.973983	0.276323	0.889103	0.954989	0.354283	0.691371	0.256120	0.128463	0.684897	0.265070	0.526383	0.479481	0.563665	-0.041159	0.482859	0.550881	0.522635	0.090031	0.420284	-0.040766	0.072440	0.398612	0.502153	0.028544	0.376290	-0.013535	0.015747	0.375147	0.584096	0.005356	0.523354	-0.130234	-0.006265	0.506110
280	4.650000	0.270711	1.217570	0.792190	0.313424	1.248481	0.704028	0.204583	1.245854	0.726371	0.422769	1.085480	0.602461	0.076997	1.084453	0.628112	0.510190	0.817802	0.759344	0.054229	0.808393	0.745875	0.361697	0.904256	0.943313	0.232206	0.871023	0.918367	0.326623	0.954321	0.987874	0.279069	0.909098	0.965495	0.328851	0.958189	0.955313	0.275781	0.905060	0.943004	0.356895	0.702828	0.267297	0.126708	0.697646	0.275225	0.524983	0.480752	0.559728	-0.038433	0.482380	0.548276	0.521952	0.088604	0.419256	-0.040401	0.073308	0.398304	0.500706	0.027329	0.376017	-0.013582	0.016860	0.374228	0.585532	0.003918	0.525139	-0.130438	-0.005377	0.506713
281	4.666667	0.271387	1.239070	0.787840	0.313318	1.269905	0.698816	0.204726	1.267605	0.721937	0.423082	1.102995	0.595402	0.075487	1.100782	0.626509	0.508061	0.830201	0.734924	0.049368	0.814728	0.729851	0.357569	0.918925	0.928252	0.222946	0.884742	0.899836	0.321667	0.968071	0.969135	0.263337	0.929608	0.950548	0.326522	0.976725	0.941073	0.258302	0.923437	0.924893	0.357993	0.714099	0.270536	0.127239	0.709511	0.283021	0.524155	0.481481	0.554797	-0.036483	0.486108	0.546196	0.522020	0.088830	0.418518	-0.039691	0.074525	0.397872	0.500743	0.026902	0.376333	-0.012514	0.017543	0.372452	0.586652	0.004376	0.525379	-0.129955	-0.004409	0.507964
282	4.683333	0.271649	1.258004	0.784408	0.313287	1.288869	0.695257	0.204255	1.287410	0.718303	0.423203	1.121091	0.590722	0.072488	1.120203	0.619806	0.507061	0.838495	0.713860	0.046030	0.829152	0.713545	0.350280	0.927370	0.917903	0.218689	0.898904	0.881605	0.313657	0.978007	0.959064	0.252971	0.948823	0.936891	0.319832	0.989634	0.930052	0.247223	0.941242	0.910854	0.360072	0.723668	0.276744	0.126561	0.721852	0.289819	0.525058	0.481642	0.553004	-0.032883	0.485916	0.541203	0.522955	0.087481	0.418548	-0.039250	0.074996	0.396820	0.501551	0.026225	0.375884	-0.012184	0.017228	0.371905	0.587242	0.003955	0.526095	-0.132133	-0.002797	0.512791
283	4.700000	0.269952	1.280095	0.780092	0.312157	1.309224	0.691048	0.202569	1.308209	0.714250	0.424222	1.137900	0.585282	0.069112	1.137957	0.615858	0.510175	0.847959	0.676288	0.046093	0.839741	0.698743	0.346980	0.941488	0.890696	0.220914	0.909842	0.861078	0.312399	0.990948	0.933690	0.255002	0.959513	0.904413	0.314726	0.999806	0.897475	0.251263	0.952396	0.888591	0.362231	0.733760	0.282480	0.126596	0.731923	0.295639	0.526262	0.482748	0.548734	-0.030801	0.485586	0.539625	0.524067	0.085910	0.417329	-0.038717	0.075815	0.396609	0.502577	0.025227	0.374664	-0.010834	0.016249	0.372083	0.590336	0.002958	0.523421	-0.131981	-0.002507	0.513081
284	4.716667	0.269067	1.301978	0.773359	0.311207	1.331940	0.685217	0.201050	1.330437	0.709039	0.425314	1.156532	0.579499	0.069034	1.157122	0.612497	0.508831	0.864688	0.656800	0.047254	0.852927	0.685913	0.340379	0.955038	0.868821	0.218148	0.921732	0.841849	0.305523	1.002935	0.914128	0.252642	0.974413	0.886069	0.284179	0.998410	0.850398	0.247155	0.968518	0.869621	0.364971	0.746136	0.289888	0.127138	0.743796	0.302262	0.526824	0.483812	0.545428	-0.028890	0.486457	0.537897	0.524454	0.085338	0.416635	-0.038579	0.077015	0.396026	0.502883	0.025152	0.374359	-0.010166	0.015480	0.371816	0.590891	0.003376	0.522092	-0.131654	-0.002306	0.512937
285	4.733333	0.268902	1.323393	0.767500	0.310875	1.352805	0.679681	0.200005	1.352081	0.702865	0.426457	1.167630	0.574471	0.068948	1.177816	0.608226	0.499946	0.863602	0.643652	0.045498	0.865564	0.675041	0.339577	0.964875	0.843052	0.212956	0.944217	0.828942	0.293141	1.009447	0.870880	0.251650	0.993685	0.871936	0.290364	1.016986	0.825938	0.249759	0.984557	0.858693	0.366879	0.755004	0.297769	0.127956	0.755007	0.304160	0.527808	0.485084	0.541476	-0.027056	0.487270	0.532047	0.524704	0.085157	0.416448	-0.038060	0.076951	0.394351	0.503797	0.024213	0.375140	-0.009420	0.014893	0.371671	0.592396	0.004372	0.524128	-0.130956	-0.002379	0.512837
286	4.750000	0.268646	1.346423	0.761350	0.311020	1.374547	0.674409	0.200014	1.374003	0.697154	0.427258	1.187187	0.569260	0.068516	1.198124	0.604199	0.495046	0.874539	0.638497	0.046850	0.889264	0.663441	0.322389	0.965660	0.805080	0.207447	0.960248	0.821115	0.291915	1.022646	0.855531	0.247890	1.004092	0.863783	0.289322	1.029578	0.818391	0.243778	0.996726	0.845953	0.366684	0.763527	0.301823	0.127658	0.765353	0.309162	0.528069	0.485209	0.539652	-0.025811	0.487515	0.528940	0.524585	0.084525	0.416135	-0.038252	0.077837	0.393061	0.504148	0.023040	0.375234	-0.009474	0.015297	0.372084	0.594146	0.005402	0.523111	-0.132810	-0.001546	0.513175
287	4.766667	0.268104	1.363683	0.753847	0.311567	1.392142	0.669400	0.199750	1.392170	0.690547	0.430246	1.204518	0.563110	0.067326	1.213129	0.598911	0.495352	0.884781	0.624569	0.045397	0.900630	0.650320	0.321824	0.983441	0.792733	0.208639	0.973476	0.802369	0.288924	1.039308	0.839939	0.244972	1.017985	0.845703	0.288396	1.044163	0.807577	0.239787	1.010826	0.827689	0.365927	0.773431	0.305723	0.127147	0.775969	0.314450	0.528734	0.485786	0.536491	-0.024735	0.487279	0.524981	0.524689	0.083658	0.415549	-0.038145	0.078853	0.391529	0.504700	0.021297	0.373806	-0.009822	0.015659	0.373470	0.599257	0.005172	0.523764	-0.133354	-0.001530	0.513620
288	4.783333	0.267499	1.385061	0.745934	0.312054	1.413094	0.664125	0.199453	1.412802	0.683701	0.432348	1.222705	0.557975	0.067147	1.231890	0.594801	0.491638	0.900383	0.610658	0.045585	0.919046	0.635200	0.319947	0.994634	0.765541	0.204078	0.984784	0.788753	0.285158	1.052014	0.816428	0.239750	1.035801	0.829100	0.287870	1.056469	0.793902	0.236735	1.026898	0.808497	0.365229	0.782166	0.310767	0.127013	0.784799	0.317348	0.529186	0.487061	0.533450	-0.022972	0.489105	0.522927	0.525317	0.084544	0.414635	-0.037810	0.080260	0.391567	0.505222	0.021701	0.373228	-0.009067	0.021904	0.372380	0.598879	0.005102	0.527887	-0.133567	-0.000573	0.514631
